<svg width="18" height="19" viewBox="0 0 18 19" fill="none" xmlns="http://www.w3.org/2000/svg">
<path d="M4.49997 0.5C5.69359 0.5 6.83813 0.973985 7.68209 1.81797C8.5259 2.66198 9.00006 3.80652 9.00006 4.99989V6.1248H6.74999V4.99989C6.74999 4.19611 6.32113 3.45335 5.62508 3.05136C4.92883 2.64938 4.07111 2.64938 3.37501 3.05136C2.67896 3.45335 2.2501 4.19611 2.2501 4.99989V14C2.2501 14.8037 2.67897 15.5465 3.37501 15.9485C4.07106 16.3505 4.92883 16.3505 5.62508 15.9485C6.32113 15.5465 6.74999 14.8037 6.74999 14V12.8749H9.00006V14C9.00006 15.6075 8.14234 17.0932 6.74999 17.897C5.35764 18.701 3.6424 18.701 2.25005 17.897C0.857704 17.0932 -1.33514e-05 15.6075 -1.33514e-05 14V4.99989C-1.33514e-05 3.80647 0.473971 2.66193 1.31795 1.81797C2.16196 0.97396 3.30651 0.5 4.49987 0.5H4.49997Z" fill="black"/>
<path d="M4.49997 8.37511H14.158L11.9079 6.12504L13.4999 4.5332L17.6709 8.70412C17.8822 8.91522 18.0009 9.20145 18.0009 9.50007C18.0009 9.79868 17.8822 10.0849 17.6709 10.296L13.4999 14.4669L11.9079 12.8751L14.158 10.625H4.49997V8.37511Z" fill="black"/>
</svg>
