<svg width="21" height="20" viewBox="0 0 21 20" fill="none" xmlns="http://www.w3.org/2000/svg">
<path d="M10.2525 19.9996C15.638 19.9996 20.0045 15.6331 20.0045 10.2475C20.0045 4.86196 15.638 0.495483 10.2525 0.495483C4.8669 0.495483 0.500427 4.86196 0.500427 10.2475C0.500427 15.6331 4.8669 19.9996 10.2525 19.9996ZM10.2525 5.18099C10.8675 5.18099 11.4575 5.42534 11.8924 5.86029C12.3272 6.29523 12.5716 6.88502 12.5716 7.5001C12.5716 8.11517 12.3272 8.7051 11.8924 9.14004C11.4575 9.57498 10.8675 9.81934 10.2525 9.81934C9.6374 9.81934 9.04747 9.575 8.61253 9.14004C8.17772 8.7051 7.93337 8.11517 7.93337 7.5001C7.93445 6.88544 8.17921 6.29621 8.61388 5.86165C9.04855 5.42699 9.63778 5.18221 10.2525 5.18099ZM7.04729 11.7277C7.89732 10.8777 9.05036 10.4002 10.2525 10.4002C11.4548 10.4002 12.6076 10.8777 13.4578 11.7277C14.3078 12.5778 14.7855 13.7308 14.7856 14.9329H5.71937C5.71624 13.7301 6.19433 12.5759 7.04736 11.7277H7.04729Z" fill="black"/>
</svg>
